<?xml version="1.0"?>
<svg xmlns="http://www.w3.org/2000/svg" xmlns:xlink="http://www.w3.org/1999/xlink" xmlns:svgjs="http://svgjs.com/svgjs" version="1.1" width="512" height="512" x="0" y="0" viewBox="0 0 300 300" style="enable-background:new 0 0 512 512" xml:space="preserve" class=""><g><g xmlns="http://www.w3.org/2000/svg"><path d="m62.05 70.099c2.264 0 4.099-1.835 4.099-4.099s-1.835-4.099-4.099-4.099-4.1 1.835-4.1 4.099 1.836 4.099 4.1 4.099z" fill="#ffffff" data-original="#000000" style="" class=""/><path d="m50.05 129.901c-2.264 0-4.099 1.835-4.099 4.099s1.835 4.099 4.099 4.099 4.099-1.835 4.099-4.099-1.835-4.099-4.099-4.099z" fill="#ffffff" data-original="#000000" style="" class=""/><path d="m70.05 166c-6.617 0-12 5.383-12 12s5.383 12 12 12 12-5.383 12-12-5.383-12-12-12zm0 16c-2.207 0-4-1.795-4-4s1.793-4 4-4 4 1.795 4 4-1.793 4-4 4z" fill="#ffffff" data-original="#000000" style="" class=""/><path d="m118.05 126c2.211 0 4-1.791 4-4v-4c0-11.027 8.973-20 20-20 2.211 0 4-1.791 4-4s-1.789-4-4-4c-15.438 0-28 12.561-28 28v4c0 2.209 1.789 4 4 4z" fill="#ffffff" data-original="#000000" style="" class=""/><path d="m222.05 262h-25.422c.884-1.838 1.422-3.871 1.422-6.043v-135.969c0-18.036-9.634-33.823-24-42.616v-43.372c0-2.209-1.789-4-4-4h-44c-2.211 0-4 1.791-4 4v43.368c-14.363 8.792-24 24.581-24 42.62v135.969c0 7.744 6.301 14.043 14.043 14.043h109.957c2.211 0 4-1.791 4-4s-1.789-4-4-4zm-92-224h36v35.406c-5.597-2.169-11.656-3.406-18.012-3.406-6.346 0-12.398 1.236-17.988 3.403zm-17.957 224c-3.332 0-6.043-2.711-6.043-6.043v-135.969c0-23.152 18.836-41.988 42.011-41.988 23.152 0 41.988 18.836 41.988 41.988v135.969c0 3.332-2.711 6.043-6.043 6.043z" fill="#ffffff" data-original="#000000" style="" class=""/><path d="m250.05 262h-12c-2.211 0-4 1.791-4 4s1.789 4 4 4h12c2.211 0 4-1.791 4-4s-1.789-4-4-4z" fill="#ffffff" data-original="#000000" style="" class=""/><path d="m134.05 142h-16c-2.211 0-4 1.791-4 4v16c0 2.209 1.789 4 4 4h16c2.211 0 4-1.791 4-4v-16c0-2.209-1.789-4-4-4zm-4 16h-8v-8h8z" fill="#ffffff" data-original="#000000" style="" class=""/><path d="m178.05 142h-16c-2.211 0-4 1.791-4 4v16c0 2.209 1.789 4 4 4h16c2.211 0 4-1.791 4-4v-16c0-2.209-1.789-4-4-4zm-4 16h-8v-8h8z" fill="#ffffff" data-original="#000000" style="" class=""/><path d="m134.05 186h-16c-2.211 0-4 1.791-4 4v16c0 2.209 1.789 4 4 4h16c2.211 0 4-1.791 4-4v-16c0-2.209-1.789-4-4-4zm-4 16h-8v-8h8z" fill="#ffffff" data-original="#000000" style="" class=""/><path d="m178.05 186h-16c-2.211 0-4 1.791-4 4v16c0 2.209 1.789 4 4 4h16c2.211 0 4-1.791 4-4v-16c0-2.209-1.789-4-4-4zm-4 16h-8v-8h8z" fill="#ffffff" data-original="#000000" style="" class=""/><path d="m174.05 178v-4c0-2.209-1.789-4-4-4s-4 1.791-4 4v4c0 2.209 1.789 4 4 4s4-1.791 4-4z" fill="#ffffff" data-original="#000000" style="" class=""/><path d="m150.05 194h-4c-2.211 0-4 1.791-4 4s1.789 4 4 4h4c2.211 0 4-1.791 4-4s-1.789-4-4-4z" fill="#ffffff" data-original="#000000" style="" class=""/><path d="m150.05 150h-4c-2.211 0-4 1.791-4 4s1.789 4 4 4h4c2.211 0 4-1.791 4-4s-1.789-4-4-4z" fill="#ffffff" data-original="#000000" style="" class=""/><path d="m130.05 178v-4c0-2.209-1.789-4-4-4s-4 1.791-4 4v4c0 2.209 1.789 4 4 4s4-1.791 4-4z" fill="#ffffff" data-original="#000000" style="" class=""/><path d="m90.534 97.516c-1.562-1.562-4.094-1.562-5.656 0l-2.828 2.828-2.828-2.828c-1.562-1.562-4.094-1.562-5.656 0s-1.562 4.094 0 5.656l2.827 2.828-2.828 2.828c-1.562 1.562-1.562 4.094 0 5.656.781.781 1.805 1.172 2.828 1.172s2.047-.391 2.828-1.172l2.828-2.828 2.828 2.828c.781.781 1.805 1.172 2.828 1.172s2.047-.391 2.828-1.172c1.562-1.562 1.562-4.094 0-5.656l-2.827-2.828 2.828-2.828c1.563-1.563 1.563-4.094 0-5.656z" fill="#ffffff" data-original="#000000" style="" class=""/></g></g></svg>
